<?xml version="1.0" encoding="iso-8859-1"?>
<!-- Generator: Adobe Illustrator 19.0.0, SVG Export Plug-In . SVG Version: 6.00 Build 0)  -->
<svg version="1.1" id="Capa_1" xmlns="http://www.w3.org/2000/svg" xmlns:xlink="http://www.w3.org/1999/xlink" x="0px" y="0px"
	 viewBox="0 0 512 512" style="enable-background:new 0 0 512 512;" xml:space="preserve">
<g>
	<path style="fill:#303C42;" d="M405.333,64c-39.479,0-64,28.615-64,74.667c0,17.194,4.026,29.512,8.51,39.462
		c-53.91,18.013-83.177,68.124-83.177,109.871v149.333c0,5.896,4.771,10.667,10.667,10.667h32c5.896,0,10.667-4.771,10.667-10.667
		V320c0-2.569,0.242-4.827,0.332-7.28c1.753,42.714,35.307,71.28,85.001,71.28C453.354,384,512,310.167,512,224
		C512,123.813,472.125,64,405.333,64z M322.892,288.659c3.482-17.457,10.286-30.59,20.245-39.51
		C335.293,260.389,327.104,273.371,322.892,288.659z"/>
	<path style="fill:#303C42;" d="M162.156,178.129c4.484-9.951,8.51-22.268,8.51-39.462c0-46.052-24.521-74.667-64-74.667
		C39.875,64,0,123.813,0,224c0,86.167,58.646,160,106.667,160c49.694,0,83.249-28.566,85.001-71.28
		c0.09,2.453,0.332,4.711,0.332,7.28v117.333c0,5.896,4.771,10.667,10.667,10.667h32c5.896,0,10.667-4.771,10.667-10.667V288
		C245.333,246.253,216.066,196.142,162.156,178.129z M168.863,249.148c9.957,8.921,16.762,22.051,20.243,39.504
		C184.893,273.367,176.706,260.388,168.863,249.148z"/>
</g>
<path style="fill:#8D6E63;" d="M106.667,362.667c-33.688,0-85.333-62.125-85.333-138.667c0-88.125,31.104-138.667,85.333-138.667
	c37.125,0,42.667,33.417,42.667,53.333c0,18.115-5.292,28.51-10.917,39.51C133.292,188.229,128,198.615,128,213.333
	c0,15.125,9.458,28.417,19.458,42.49c11.417,16.042,23.208,32.635,23.208,53.51C170.667,348.656,137.604,362.667,106.667,362.667z"
	/>
<g>
	<path style="fill:#E6E6E6;" d="M224,426.667h-10.667V320c0-57.879-22.59-94.085-63.375-103.483
		c-0.204-1.06-0.625-2.188-0.625-3.184c0-5.908,1.441-10.84,3.535-15.822C204.217,213.064,224,260.211,224,288V426.667z"/>
	<path style="fill:#E6E6E6;" d="M298.667,320v106.667H288V288c0-27.789,19.783-74.936,71.132-90.488
		c2.094,4.982,3.535,9.914,3.535,15.822c0,0.996-0.421,2.124-0.625,3.184C321.257,225.915,298.667,262.121,298.667,320z"/>
</g>
<path style="fill:#8D6E63;" d="M405.333,362.667c-30.938,0-64-14.01-64-53.333c0-20.875,11.792-37.469,23.208-53.51
	c10-14.073,19.458-27.365,19.458-42.49c0-14.719-5.292-25.104-10.417-35.156c-5.625-11-10.917-21.396-10.917-39.51
	c0-19.917,5.542-53.333,42.667-53.333c54.229,0,85.333,50.542,85.333,138.667C490.667,300.542,439.021,362.667,405.333,362.667z"/>
<g>
	<path style="opacity:0.2;fill:#FFFFFF;enable-background:new    ;" d="M33.333,236c0-88.125,31.104-138.667,85.333-138.667
		c9.1,0,16.257,2.049,21.945,5.374c-6.199-9.889-16.5-17.374-33.945-17.374c-54.229,0-85.333,50.542-85.333,138.667
		c0,53.865,25.581,100.479,52.477,123.438C51.79,322.172,33.333,281.72,33.333,236z"/>
	<path style="opacity:0.2;fill:#FFFFFF;enable-background:new    ;" d="M353.333,321.333c0-20.875,11.792-37.469,23.208-53.51
		c10-14.073,19.458-27.365,19.458-42.49c0-14.719-5.292-25.104-10.417-35.156c-5.625-11-10.917-21.396-10.917-39.51
		c0-19.917,5.542-53.333,42.667-53.333c17.21,0,31.791,5.632,44.087,15.397c-14.122-17.579-32.824-27.397-56.087-27.397
		c-37.125,0-42.667,33.417-42.667,53.333c0,18.115,5.292,28.51,10.917,39.51C378.708,188.229,384,198.615,384,213.333
		c0,15.125-9.458,28.417-19.458,42.49c-11.417,16.042-23.208,32.635-23.208,53.51c0,19.978,8.573,33.367,21.026,41.76
		C356.883,343.371,353.333,333.74,353.333,321.333z"/>
</g>
<linearGradient id="SVGID_1_" gradientUnits="userSpaceOnUse" x1="-45.7344" y1="640.8901" x2="-24.1572" y2="630.829" gradientTransform="matrix(21.3333 0 0 -21.3333 996.3334 13791.667)">
	<stop  offset="0" style="stop-color:#FFFFFF;stop-opacity:0.2"/>
	<stop  offset="1" style="stop-color:#FFFFFF;stop-opacity:0"/>
</linearGradient>
<path style="fill:url(#SVGID_1_);" d="M162.156,178.129c4.484-9.951,8.51-22.268,8.51-39.462c0-46.052-24.521-74.667-64-74.667
	C39.875,64,0,123.813,0,224c0,86.167,58.646,160,106.667,160c49.694,0,83.249-28.566,85.001-71.28
	c0.09,2.453,0.332,4.711,0.332,7.28v117.333c0,5.896,4.771,10.667,10.667,10.667h32c5.896,0,10.667-4.771,10.667-10.667V288
	C245.333,246.253,216.066,196.142,162.156,178.129z M168.863,249.148c9.957,8.921,16.762,22.051,20.243,39.504
	C184.893,273.367,176.706,260.388,168.863,249.148z M405.333,64c-39.479,0-64,28.615-64,74.667c0,17.194,4.026,29.512,8.51,39.462
	c-53.91,18.013-83.177,68.124-83.177,109.871v149.333c0,5.896,4.771,10.667,10.667,10.667h32c5.896,0,10.667-4.771,10.667-10.667
	V320c0-2.569,0.242-4.827,0.332-7.28c1.753,42.714,35.307,71.28,85.001,71.28C453.354,384,512,310.167,512,224
	C512,123.813,472.125,64,405.333,64z M322.892,288.659c3.482-17.457,10.286-30.59,20.245-39.51
	C335.293,260.389,327.104,273.371,322.892,288.659z"/>
<g>
</g>
<g>
</g>
<g>
</g>
<g>
</g>
<g>
</g>
<g>
</g>
<g>
</g>
<g>
</g>
<g>
</g>
<g>
</g>
<g>
</g>
<g>
</g>
<g>
</g>
<g>
</g>
<g>
</g>
</svg>
